<?xml version="1.0" standalone="no"?><!DOCTYPE svg PUBLIC "-//W3C//DTD SVG 1.1//EN" "http://www.w3.org/Graphics/SVG/1.1/DTD/svg11.dtd"><svg t="1555663818301" class="icon" style="" viewBox="0 0 1024 1024" version="1.1" xmlns="http://www.w3.org/2000/svg" p-id="2063" xmlns:xlink="http://www.w3.org/1999/xlink" width="64" height="64"><defs><style type="text/css"></style></defs><path d="M495.542857 835.657143L146.285714 475.428571l89.6-73.142857 201.142857 160.914286c82.285714-100.571429 266.971429-298.057143 521.142858-455.314286l21.942857 49.371429C746.057143 373.028571 555.885714 680.228571 495.542857 835.657143z m440.685714-393.142857c3.657143 23.771429 5.485714 47.542857 5.485715 69.485714 0 237.714286-193.828571 431.542857-431.542857 431.542857S80.457143 749.714286 80.457143 512 272.457143 80.457143 510.171429 80.457143c56.685714 0 113.371429 10.971429 162.742857 31.085714V27.428571C621.714286 9.142857 566.857143 0 510.171429 0 442.514286 0 374.857143 14.628571 310.857143 40.228571c-60.342857 25.6-115.2 62.171429-160.914286 109.714286s-84.114286 102.4-109.714286 162.742857C14.628571 374.857143 0 442.514286 0 512s14.628571 135.314286 40.228571 199.314286c25.6 60.342857 62.171429 115.2 109.714286 162.742857s102.4 84.114286 162.742857 109.714286C374.857143 1009.371429 442.514286 1024 512 1024s135.314286-14.628571 199.314286-40.228571c60.342857-25.6 115.2-62.171429 162.742857-109.714286s84.114286-102.4 109.714286-162.742857C1009.371429 649.142857 1024 581.485714 1024 512c0-23.771429-1.828571-47.542857-3.657143-69.485714h-84.114286z" fill="#108EE9" p-id="2064"></path></svg>